<svg xmlns="http://www.w3.org/2000/svg" xmlns:xlink="http://www.w3.org/1999/xlink" width="500" zoomAndPan="magnify" viewBox="0 0 375 374.999991" height="500" preserveAspectRatio="xMidYMid meet" version="1.0"><defs><clipPath id="c2948253ac"><path d="M 2 146.589844 L 373 146.589844 L 373 228.339844 L 2 228.339844 Z M 2 146.589844 " clip-rule="nonzero"/></clipPath></defs><g clip-path="url(#c2948253ac)"><path fill="#000000" d="M 13.125 175.511719 C 13.734375 175.558594 14.34375 175.542969 14.953125 175.464844 C 15.558594 175.390625 16.152344 175.253906 16.730469 175.054688 C 17.3125 174.859375 17.863281 174.605469 18.390625 174.296875 C 18.921875 173.988281 19.410156 173.628906 19.867188 173.21875 C 20.320312 172.808594 20.730469 172.359375 21.09375 171.867188 C 21.457031 171.371094 21.765625 170.847656 22.023438 170.292969 C 22.277344 169.738281 22.476562 169.164062 22.617188 168.566406 C 22.753906 167.972656 22.832031 167.367188 22.847656 166.757812 C 22.847656 161.359375 18.527344 159.664062 14.703125 158.429688 C 11.621094 157.386719 8.957031 156.730469 8.957031 154.457031 C 8.957031 152.644531 10.308594 151.257812 12.894531 151.257812 C 13.398438 151.238281 13.898438 151.28125 14.394531 151.394531 C 14.886719 151.507812 15.359375 151.683594 15.804688 151.921875 C 16.253906 152.15625 16.660156 152.449219 17.03125 152.792969 C 17.402344 153.136719 17.71875 153.527344 17.988281 153.957031 L 22.308594 150.679688 C 21.71875 150.011719 21.066406 149.417969 20.34375 148.894531 C 19.625 148.371094 18.855469 147.933594 18.039062 147.578125 C 17.222656 147.226562 16.375 146.964844 15.503906 146.800781 C 14.628906 146.632812 13.746094 146.5625 12.855469 146.589844 C 7.453125 146.589844 3.511719 150.136719 3.511719 154.648438 C 3.511719 160.003906 7.679688 161.4375 11.5 162.671875 C 14.472656 163.59375 17.367188 164.367188 17.367188 166.71875 C 17.363281 166.988281 17.332031 167.253906 17.269531 167.515625 C 17.210938 167.777344 17.125 168.03125 17.011719 168.277344 C 16.902344 168.519531 16.765625 168.75 16.605469 168.964844 C 16.441406 169.183594 16.261719 169.378906 16.058594 169.558594 C 15.859375 169.734375 15.640625 169.890625 15.40625 170.023438 C 15.171875 170.15625 14.925781 170.261719 14.667969 170.34375 C 14.410156 170.421875 14.148438 170.476562 13.882812 170.503906 C 13.613281 170.53125 13.347656 170.527344 13.078125 170.496094 C 12.4375 170.492188 11.8125 170.402344 11.195312 170.222656 C 10.582031 170.046875 10 169.789062 9.457031 169.453125 C 8.914062 169.117188 8.421875 168.710938 7.988281 168.242188 C 7.554688 167.769531 7.195312 167.25 6.90625 166.679688 L 2.128906 170.460938 C 2.792969 171.269531 3.539062 171.996094 4.371094 172.636719 C 5.199219 173.277344 6.089844 173.816406 7.042969 174.253906 C 7.996094 174.691406 8.984375 175.015625 10.011719 175.226562 C 11.039062 175.441406 12.078125 175.535156 13.125 175.511719 Z M 36.199219 175.585938 C 37.617188 175.613281 38.96875 175.328125 40.257812 174.734375 C 41.542969 174.136719 42.636719 173.292969 43.53125 172.195312 L 43.53125 175.125 L 48.746094 175.125 L 48.746094 152.566406 L 43.535156 152.566406 L 43.535156 155.265625 C 42.621094 154.230469 41.527344 153.4375 40.257812 152.886719 C 38.992188 152.332031 37.664062 152.070312 36.28125 152.105469 C 35.523438 152.101562 34.769531 152.175781 34.023438 152.328125 C 33.277344 152.480469 32.558594 152.703125 31.859375 153 C 31.160156 153.300781 30.496094 153.664062 29.871094 154.097656 C 29.25 154.53125 28.675781 155.023438 28.152344 155.574219 C 27.625 156.125 27.164062 156.722656 26.761719 157.367188 C 26.359375 158.011719 26.027344 158.691406 25.765625 159.40625 C 25.503906 160.117188 25.3125 160.851562 25.199219 161.601562 C 25.085938 162.351562 25.050781 163.105469 25.09375 163.867188 C 25.0625 164.617188 25.105469 165.363281 25.226562 166.105469 C 25.34375 166.851562 25.539062 167.574219 25.800781 168.277344 C 26.066406 168.980469 26.398438 169.652344 26.796875 170.292969 C 27.195312 170.929688 27.65625 171.519531 28.171875 172.066406 C 28.691406 172.613281 29.257812 173.101562 29.871094 173.535156 C 30.488281 173.96875 31.140625 174.335938 31.832031 174.636719 C 32.519531 174.941406 33.230469 175.171875 33.96875 175.332031 C 34.703125 175.492188 35.449219 175.578125 36.199219 175.585938 Z M 37.058594 170.804688 C 36.601562 170.804688 36.148438 170.761719 35.703125 170.667969 C 35.253906 170.578125 34.820312 170.445312 34.402344 170.265625 C 33.980469 170.089844 33.582031 169.871094 33.203125 169.613281 C 32.828125 169.355469 32.480469 169.0625 32.160156 168.738281 C 31.84375 168.410156 31.5625 168.054688 31.3125 167.671875 C 31.066406 167.289062 30.859375 166.882812 30.695312 166.457031 C 30.527344 166.03125 30.40625 165.597656 30.328125 165.148438 C 30.25 164.695312 30.214844 164.246094 30.226562 163.789062 C 30.21875 163.335938 30.253906 162.882812 30.332031 162.4375 C 30.414062 161.992188 30.539062 161.558594 30.703125 161.136719 C 30.871094 160.714844 31.078125 160.3125 31.328125 159.933594 C 31.574219 159.550781 31.859375 159.199219 32.175781 158.878906 C 32.496094 158.554688 32.84375 158.265625 33.21875 158.011719 C 33.59375 157.757812 33.992188 157.542969 34.410156 157.367188 C 34.832031 157.195312 35.261719 157.0625 35.707031 156.976562 C 36.15625 156.886719 36.605469 156.84375 37.058594 156.847656 C 37.507812 156.847656 37.957031 156.890625 38.398438 156.980469 C 38.84375 157.070312 39.269531 157.203125 39.6875 157.378906 C 40.101562 157.554688 40.496094 157.769531 40.871094 158.023438 C 41.242188 158.28125 41.585938 158.570312 41.902344 158.890625 C 42.214844 159.214844 42.496094 159.566406 42.742188 159.945312 C 42.984375 160.328125 43.1875 160.726562 43.351562 161.148438 C 43.515625 161.566406 43.636719 162 43.714844 162.445312 C 43.792969 162.890625 43.824219 163.335938 43.8125 163.789062 C 43.824219 164.242188 43.796875 164.691406 43.71875 165.140625 C 43.644531 165.589844 43.527344 166.023438 43.363281 166.449219 C 43.199219 166.871094 42.996094 167.277344 42.753906 167.660156 C 42.507812 168.042969 42.230469 168.398438 41.914062 168.726562 C 41.597656 169.050781 41.253906 169.34375 40.878906 169.601562 C 40.507812 169.859375 40.109375 170.078125 39.691406 170.257812 C 39.273438 170.4375 38.84375 170.570312 38.398438 170.664062 C 37.953125 170.757812 37.503906 170.804688 37.050781 170.804688 Z M 51.90625 175.125 L 57.105469 175.125 L 57.105469 162.632812 C 57.105469 158.628906 59.277344 156.617188 62.207031 156.617188 C 65.332031 156.617188 66.953125 158.582031 66.953125 161.820312 L 66.953125 175.125 L 72.242188 175.125 L 72.242188 162.515625 C 72.242188 158.542969 74.402344 156.617188 77.21875 156.617188 C 80.460938 156.617188 82.117188 158.699219 82.117188 161.972656 L 82.117188 175.125 L 87.445312 175.125 L 87.445312 161.550781 C 87.445312 155.691406 84.320312 152.105469 78.261719 152.105469 C 77.527344 152.089844 76.804688 152.167969 76.09375 152.335938 C 75.382812 152.503906 74.703125 152.757812 74.054688 153.097656 C 73.40625 153.4375 72.8125 153.855469 72.269531 154.347656 C 71.726562 154.835938 71.253906 155.386719 70.851562 156 C 70.488281 155.359375 70.046875 154.78125 69.519531 154.269531 C 68.992188 153.757812 68.402344 153.328125 67.753906 152.984375 C 67.105469 152.636719 66.421875 152.390625 65.699219 152.242188 C 64.980469 152.09375 64.253906 152.046875 63.519531 152.105469 C 62.261719 152.074219 61.0625 152.328125 59.925781 152.871094 C 58.789062 153.417969 57.839844 154.1875 57.074219 155.191406 L 57.074219 152.566406 L 51.90625 152.566406 Z M 98.910156 175.585938 C 105.351562 175.585938 108.167969 171.382812 108.167969 168.222656 C 108.167969 163.441406 103.925781 162.246094 100.21875 161.4375 C 96.820312 160.703125 95.050781 160.316406 95.050781 158.8125 C 95.050781 157.542969 96.207031 156.386719 98.675781 156.386719 C 99.15625 156.367188 99.628906 156.410156 100.09375 156.519531 C 100.558594 156.628906 101.003906 156.796875 101.421875 157.023438 C 101.84375 157.25 102.226562 157.527344 102.574219 157.859375 C 102.917969 158.1875 103.214844 158.558594 103.460938 158.96875 L 107.898438 156.730469 C 107.417969 155.957031 106.84375 155.265625 106.171875 154.648438 C 105.5 154.035156 104.757812 153.519531 103.945312 153.109375 C 103.132812 152.699219 102.277344 152.402344 101.382812 152.226562 C 100.492188 152.050781 99.589844 151.996094 98.679688 152.066406 C 93.242188 152.066406 89.804688 155.34375 89.804688 158.96875 C 89.804688 163.679688 93.859375 165.0625 97.714844 165.753906 C 100.503906 166.371094 103.003906 166.679688 103.003906 168.339844 C 103.003906 169.835938 101.730469 171.074219 99.144531 171.074219 C 98.582031 171.097656 98.023438 171.039062 97.480469 170.898438 C 96.933594 170.757812 96.417969 170.542969 95.933594 170.25 C 95.449219 169.957031 95.019531 169.605469 94.640625 169.1875 C 94.261719 168.769531 93.949219 168.308594 93.703125 167.796875 L 88.878906 170.113281 C 89.347656 171.015625 89.9375 171.828125 90.652344 172.558594 C 91.363281 173.285156 92.164062 173.890625 93.058594 174.378906 C 93.953125 174.867188 94.898438 175.214844 95.894531 175.417969 C 96.890625 175.625 97.894531 175.679688 98.910156 175.585938 Z M 130.546875 152.566406 L 125.335938 152.566406 L 125.335938 164.945312 C 125.335938 168.917969 123.214844 171.074219 120.320312 171.074219 C 117.039062 171.074219 115.496094 168.917969 115.496094 165.40625 L 115.496094 152.566406 L 110.210938 152.566406 L 110.210938 165.949219 C 110.210938 171.964844 113.527344 175.585938 118.890625 175.585938 C 120.15625 175.640625 121.363281 175.398438 122.507812 174.859375 C 123.652344 174.320312 124.609375 173.546875 125.375 172.542969 L 125.375 175.125 L 130.546875 175.125 Z M 133.75 175.125 L 138.957031 175.125 L 138.957031 162.746094 C 138.957031 158.777344 141.273438 156.617188 144.242188 156.617188 C 147.640625 156.617188 149.335938 158.777344 149.335938 162.285156 L 149.335938 175.125 L 154.625 175.125 L 154.625 161.746094 C 154.625 155.691406 151.265625 152.105469 145.671875 152.105469 C 144.351562 152.074219 143.097656 152.34375 141.90625 152.914062 C 140.714844 153.484375 139.71875 154.296875 138.917969 155.34375 L 138.917969 152.558594 L 133.75 152.558594 Z M 175.382812 174.738281 C 175.398438 175.164062 175.367188 175.589844 175.296875 176.011719 C 175.222656 176.429688 175.109375 176.839844 174.953125 177.238281 C 174.800781 177.636719 174.605469 178.015625 174.375 178.371094 C 174.140625 178.730469 173.875 179.0625 173.578125 179.367188 C 173.277344 179.671875 172.949219 179.941406 172.59375 180.179688 C 172.242188 180.417969 171.867188 180.621094 171.472656 180.78125 C 171.074219 180.945312 170.667969 181.066406 170.25 181.144531 C 169.828125 181.226562 169.40625 181.261719 168.976562 181.253906 C 168.230469 181.292969 167.496094 181.214844 166.773438 181.019531 C 166.050781 180.828125 165.375 180.527344 164.746094 180.125 C 164.113281 179.71875 163.5625 179.226562 163.085938 178.652344 C 162.609375 178.074219 162.234375 177.4375 161.957031 176.746094 L 157.324219 179.558594 C 157.878906 180.597656 158.5625 181.535156 159.386719 182.375 C 160.210938 183.214844 161.132812 183.921875 162.160156 184.5 C 163.1875 185.074219 164.273438 185.492188 165.417969 185.753906 C 166.566406 186.015625 167.726562 186.109375 168.902344 186.035156 C 169.671875 186.089844 170.441406 186.0625 171.210938 185.953125 C 171.976562 185.84375 172.722656 185.65625 173.449219 185.386719 C 174.175781 185.117188 174.863281 184.777344 175.519531 184.359375 C 176.171875 183.945312 176.773438 183.464844 177.324219 182.921875 C 177.875 182.378906 178.363281 181.78125 178.789062 181.136719 C 179.210938 180.488281 179.5625 179.804688 179.84375 179.082031 C 180.121094 178.359375 180.320312 177.617188 180.441406 176.851562 C 180.558594 176.085938 180.597656 175.320312 180.554688 174.546875 L 180.554688 152.566406 L 175.34375 152.566406 L 175.34375 155.460938 C 174.449219 154.382812 173.367188 153.550781 172.097656 152.964844 C 170.828125 152.375 169.492188 152.089844 168.089844 152.105469 C 167.332031 152.101562 166.578125 152.175781 165.832031 152.328125 C 165.085938 152.480469 164.367188 152.703125 163.667969 153 C 162.96875 153.300781 162.304688 153.664062 161.679688 154.097656 C 161.058594 154.53125 160.484375 155.023438 159.960938 155.574219 C 159.433594 156.125 158.972656 156.722656 158.570312 157.367188 C 158.167969 158.011719 157.835938 158.691406 157.574219 159.40625 C 157.3125 160.117188 157.121094 160.851562 157.007812 161.601562 C 156.894531 162.351562 156.859375 163.105469 156.902344 163.867188 C 156.871094 164.617188 156.914062 165.363281 157.035156 166.109375 C 157.15625 166.851562 157.347656 167.574219 157.613281 168.277344 C 157.875 168.984375 158.207031 169.65625 158.605469 170.292969 C 159.007812 170.929688 159.464844 171.523438 159.984375 172.070312 C 160.5 172.613281 161.066406 173.105469 161.683594 173.539062 C 162.300781 173.96875 162.953125 174.335938 163.640625 174.640625 C 164.332031 174.941406 165.042969 175.171875 165.78125 175.332031 C 166.515625 175.492188 167.261719 175.578125 168.011719 175.585938 C 169.445312 175.617188 170.808594 175.328125 172.105469 174.71875 C 173.402344 174.113281 174.492188 173.246094 175.382812 172.125 Z M 168.863281 170.804688 C 168.40625 170.804688 167.953125 170.761719 167.507812 170.667969 C 167.058594 170.578125 166.625 170.445312 166.203125 170.265625 C 165.785156 170.089844 165.386719 169.871094 165.007812 169.613281 C 164.632812 169.355469 164.285156 169.0625 163.964844 168.738281 C 163.648438 168.410156 163.363281 168.054688 163.117188 167.671875 C 162.871094 167.289062 162.664062 166.882812 162.5 166.457031 C 162.332031 166.03125 162.210938 165.597656 162.132812 165.148438 C 162.054688 164.695312 162.019531 164.246094 162.03125 163.789062 C 162.023438 163.335938 162.058594 162.882812 162.136719 162.4375 C 162.21875 161.992188 162.34375 161.558594 162.507812 161.136719 C 162.675781 160.714844 162.882812 160.3125 163.132812 159.933594 C 163.378906 159.550781 163.664062 159.199219 163.980469 158.878906 C 164.300781 158.554688 164.648438 158.265625 165.023438 158.011719 C 165.398438 157.757812 165.796875 157.542969 166.214844 157.367188 C 166.636719 157.195312 167.066406 157.0625 167.511719 156.976562 C 167.957031 156.886719 168.410156 156.84375 168.863281 156.847656 C 169.3125 156.847656 169.761719 156.890625 170.203125 156.980469 C 170.644531 157.070312 171.074219 157.203125 171.492188 157.378906 C 171.90625 157.554688 172.300781 157.769531 172.675781 158.023438 C 173.046875 158.28125 173.390625 158.570312 173.707031 158.890625 C 174.019531 159.214844 174.300781 159.566406 174.542969 159.945312 C 174.789062 160.328125 174.992188 160.726562 175.15625 161.148438 C 175.320312 161.566406 175.441406 162 175.519531 162.445312 C 175.597656 162.890625 175.628906 163.335938 175.613281 163.789062 C 175.628906 164.242188 175.601562 164.691406 175.523438 165.140625 C 175.449219 165.585938 175.332031 166.023438 175.167969 166.445312 C 175.003906 166.871094 174.800781 167.273438 174.558594 167.65625 C 174.316406 168.039062 174.035156 168.394531 173.722656 168.722656 C 173.40625 169.046875 173.0625 169.339844 172.6875 169.597656 C 172.316406 169.859375 171.921875 170.078125 171.503906 170.253906 C 171.085938 170.433594 170.65625 170.570312 170.210938 170.664062 C 169.765625 170.753906 169.316406 170.804688 168.863281 170.804688 Z M 3.828125 217.96875 L 9.074219 217.96875 L 9.074219 189.820312 L 3.828125 189.820312 Z M 12.585938 217.96875 L 17.792969 217.96875 L 17.792969 205.589844 C 17.792969 201.621094 20.109375 199.460938 23.082031 199.460938 C 26.476562 199.460938 28.175781 201.621094 28.175781 205.128906 L 28.175781 217.96875 L 33.460938 217.96875 L 33.460938 204.589844 C 33.460938 198.535156 30.105469 194.949219 24.507812 194.949219 C 23.1875 194.917969 21.933594 195.1875 20.742188 195.757812 C 19.554688 196.328125 18.558594 197.140625 17.757812 198.1875 L 17.757812 195.410156 L 12.585938 195.410156 Z M 36.472656 217.96875 L 41.671875 217.96875 L 41.671875 205.589844 C 41.671875 201.621094 43.988281 199.460938 46.957031 199.460938 C 50.351562 199.460938 52.050781 201.621094 52.050781 205.128906 L 52.050781 217.96875 L 57.335938 217.96875 L 57.335938 204.589844 C 57.335938 198.535156 53.980469 194.949219 48.386719 194.949219 C 47.066406 194.917969 45.808594 195.1875 44.621094 195.757812 C 43.429688 196.328125 42.433594 197.140625 41.632812 198.1875 L 41.632812 195.410156 L 36.472656 195.410156 Z M 71.316406 218.429688 C 72.085938 218.433594 72.851562 218.363281 73.609375 218.214844 C 74.371094 218.070312 75.105469 217.847656 75.820312 217.558594 C 76.535156 217.265625 77.214844 216.90625 77.859375 216.480469 C 78.503906 216.054688 79.101562 215.566406 79.648438 215.023438 C 80.199219 214.480469 80.6875 213.886719 81.117188 213.246094 C 81.550781 212.609375 81.914062 211.929688 82.214844 211.21875 C 82.511719 210.507812 82.738281 209.773438 82.890625 209.015625 C 83.042969 208.257812 83.121094 207.496094 83.121094 206.722656 C 83.125 205.949219 83.050781 205.183594 82.902344 204.429688 C 82.753906 203.671875 82.53125 202.933594 82.238281 202.21875 C 81.945312 201.507812 81.582031 200.828125 81.15625 200.1875 C 80.726562 199.542969 80.238281 198.949219 79.695312 198.402344 C 79.148438 197.855469 78.554688 197.367188 77.914062 196.9375 C 77.273438 196.507812 76.59375 196.144531 75.882812 195.847656 C 75.167969 195.550781 74.433594 195.328125 73.675781 195.175781 C 72.917969 195.023438 72.152344 194.949219 71.378906 194.949219 C 70.605469 194.949219 69.839844 195.023438 69.082031 195.171875 C 68.324219 195.324219 67.589844 195.546875 66.875 195.84375 C 66.164062 196.136719 65.484375 196.5 64.84375 196.929688 C 64.199219 197.359375 63.605469 197.847656 63.058594 198.390625 C 62.515625 198.9375 62.027344 199.53125 61.597656 200.175781 C 61.167969 200.816406 60.808594 201.496094 60.511719 202.207031 C 60.21875 202.921875 59.996094 203.65625 59.84375 204.414062 C 59.695312 205.171875 59.621094 205.9375 59.621094 206.710938 C 59.617188 207.476562 59.691406 208.242188 59.835938 208.996094 C 59.984375 209.75 60.203125 210.484375 60.496094 211.195312 C 60.789062 211.90625 61.148438 212.582031 61.574219 213.222656 C 62 213.863281 62.484375 214.457031 63.027344 215.003906 C 63.570312 215.546875 64.160156 216.035156 64.800781 216.460938 C 65.441406 216.890625 66.117188 217.25 66.828125 217.542969 C 67.539062 217.839844 68.273438 218.058594 69.027344 218.210938 C 69.78125 218.359375 70.546875 218.433594 71.316406 218.429688 Z M 71.316406 213.535156 C 70.875 213.527344 70.4375 213.480469 70.007812 213.386719 C 69.578125 213.296875 69.160156 213.160156 68.753906 212.988281 C 68.351562 212.8125 67.96875 212.597656 67.605469 212.347656 C 67.242188 212.097656 66.910156 211.8125 66.605469 211.492188 C 66.300781 211.175781 66.027344 210.832031 65.792969 210.460938 C 65.554688 210.089844 65.359375 209.699219 65.199219 209.289062 C 65.039062 208.875 64.921875 208.453125 64.847656 208.019531 C 64.773438 207.585938 64.742188 207.148438 64.753906 206.710938 C 64.734375 206.265625 64.761719 205.828125 64.828125 205.390625 C 64.898438 204.953125 65.011719 204.523438 65.167969 204.109375 C 65.324219 203.695312 65.519531 203.300781 65.757812 202.925781 C 65.992188 202.550781 66.261719 202.203125 66.570312 201.882812 C 66.875 201.5625 67.210938 201.277344 67.578125 201.023438 C 67.941406 200.773438 68.328125 200.558594 68.734375 200.386719 C 69.144531 200.210938 69.5625 200.078125 70 199.992188 C 70.433594 199.902344 70.871094 199.855469 71.316406 199.855469 C 71.757812 199.855469 72.195312 199.902344 72.632812 199.992188 C 73.066406 200.078125 73.488281 200.210938 73.894531 200.386719 C 74.300781 200.558594 74.6875 200.773438 75.054688 201.023438 C 75.417969 201.277344 75.753906 201.5625 76.058594 201.882812 C 76.367188 202.203125 76.636719 202.550781 76.875 202.925781 C 77.109375 203.300781 77.304688 203.695312 77.460938 204.109375 C 77.617188 204.523438 77.730469 204.953125 77.800781 205.390625 C 77.867188 205.828125 77.894531 206.265625 77.875 206.710938 C 77.886719 207.148438 77.851562 207.585938 77.777344 208.019531 C 77.703125 208.453125 77.585938 208.875 77.425781 209.285156 C 77.265625 209.695312 77.066406 210.085938 76.832031 210.457031 C 76.59375 210.828125 76.324219 211.171875 76.019531 211.488281 C 75.714844 211.804688 75.378906 212.089844 75.019531 212.339844 C 74.65625 212.59375 74.273438 212.804688 73.871094 212.980469 C 73.46875 213.15625 73.050781 213.292969 72.621094 213.382812 C 72.191406 213.476562 71.753906 213.527344 71.316406 213.535156 Z M 90.992188 217.96875 L 96.242188 217.96875 L 104.730469 195.410156 L 99.371094 195.410156 L 93.65625 211.296875 L 87.828125 195.410156 L 82.390625 195.410156 Z M 115.304688 218.429688 C 116.722656 218.457031 118.074219 218.171875 119.359375 217.578125 C 120.648438 216.980469 121.738281 216.136719 122.636719 215.039062 L 122.636719 217.96875 L 127.847656 217.96875 L 127.847656 195.410156 L 122.640625 195.410156 L 122.640625 198.109375 C 121.722656 197.074219 120.628906 196.28125 119.363281 195.730469 C 118.09375 195.175781 116.769531 194.914062 115.386719 194.949219 C 114.625 194.945312 113.871094 195.019531 113.128906 195.171875 C 112.382812 195.320312 111.660156 195.546875 110.960938 195.84375 C 110.261719 196.144531 109.601562 196.507812 108.976562 196.941406 C 108.351562 197.375 107.777344 197.867188 107.253906 198.417969 C 106.730469 198.96875 106.265625 199.566406 105.867188 200.210938 C 105.464844 200.855469 105.132812 201.535156 104.867188 202.25 C 104.605469 202.960938 104.417969 203.695312 104.304688 204.445312 C 104.191406 205.195312 104.152344 205.949219 104.195312 206.710938 C 104.164062 207.460938 104.210938 208.207031 104.328125 208.949219 C 104.449219 209.695312 104.640625 210.417969 104.90625 211.121094 C 105.171875 211.824219 105.5 212.496094 105.902344 213.132812 C 106.300781 213.773438 106.757812 214.363281 107.277344 214.910156 C 107.792969 215.457031 108.359375 215.945312 108.976562 216.378906 C 109.589844 216.8125 110.246094 217.179688 110.933594 217.480469 C 111.621094 217.785156 112.335938 218.015625 113.070312 218.175781 C 113.808594 218.335938 114.550781 218.421875 115.304688 218.429688 Z M 116.160156 213.648438 C 115.703125 213.648438 115.253906 213.605469 114.804688 213.511719 C 114.359375 213.421875 113.925781 213.289062 113.503906 213.109375 C 113.082031 212.933594 112.683594 212.714844 112.308594 212.457031 C 111.929688 212.199219 111.582031 211.90625 111.265625 211.582031 C 110.945312 211.253906 110.664062 210.898438 110.417969 210.515625 C 110.167969 210.132812 109.964844 209.726562 109.796875 209.300781 C 109.632812 208.875 109.507812 208.441406 109.429688 207.988281 C 109.351562 207.539062 109.320312 207.089844 109.332031 206.632812 C 109.320312 206.179688 109.355469 205.730469 109.433594 205.285156 C 109.511719 204.835938 109.632812 204.402344 109.796875 203.980469 C 109.964844 203.5625 110.167969 203.160156 110.414062 202.777344 C 110.660156 202.398438 110.941406 202.046875 111.257812 201.722656 C 111.574219 201.398438 111.921875 201.109375 112.296875 200.851562 C 112.667969 200.597656 113.066406 200.382812 113.484375 200.207031 C 113.902344 200.03125 114.332031 199.898438 114.777344 199.808594 C 115.222656 199.71875 115.667969 199.671875 116.121094 199.671875 C 116.574219 199.671875 117.023438 199.71875 117.46875 199.808594 C 117.914062 199.898438 118.34375 200.03125 118.761719 200.207031 C 119.179688 200.382812 119.574219 200.597656 119.949219 200.851562 C 120.324219 201.109375 120.671875 201.398438 120.988281 201.722656 C 121.304688 202.046875 121.582031 202.398438 121.828125 202.777344 C 122.074219 203.160156 122.28125 203.5625 122.445312 203.980469 C 122.613281 204.402344 122.734375 204.835938 122.8125 205.285156 C 122.890625 205.730469 122.925781 206.179688 122.914062 206.632812 C 122.929688 207.085938 122.898438 207.535156 122.824219 207.984375 C 122.746094 208.433594 122.628906 208.867188 122.464844 209.292969 C 122.304688 209.714844 122.101562 210.121094 121.855469 210.503906 C 121.613281 210.886719 121.332031 211.242188 121.015625 211.566406 C 120.703125 211.894531 120.355469 212.1875 119.984375 212.445312 C 119.609375 212.703125 119.214844 212.921875 118.796875 213.101562 C 118.378906 213.28125 117.945312 213.414062 117.5 213.507812 C 117.058594 213.601562 116.605469 213.648438 116.152344 213.648438 Z M 130.015625 200.078125 L 133.871094 200.078125 L 133.871094 208.558594 C 133.871094 215.730469 135.996094 217.96875 142.980469 217.96875 L 143.710938 217.96875 L 143.710938 213.070312 C 139.699219 213.070312 139.121094 212.453125 139.121094 208.519531 L 139.121094 200.078125 L 143.710938 200.078125 L 143.710938 195.410156 L 139.113281 195.410156 L 139.113281 188.394531 L 133.863281 191.980469 L 133.863281 195.40625 L 130.003906 195.40625 Z M 146.210938 217.96875 L 151.460938 217.96875 L 151.460938 195.410156 L 146.210938 195.410156 Z M 145.554688 189.90625 C 145.539062 190.125 145.542969 190.34375 145.570312 190.5625 C 145.601562 190.777344 145.65625 190.992188 145.730469 191.199219 C 145.808594 191.402344 145.902344 191.597656 146.023438 191.785156 C 146.140625 191.96875 146.28125 192.136719 146.4375 192.292969 C 146.59375 192.449219 146.765625 192.582031 146.949219 192.699219 C 147.136719 192.816406 147.335938 192.910156 147.542969 192.984375 C 147.75 193.058594 147.960938 193.109375 148.179688 193.136719 C 148.398438 193.164062 148.617188 193.167969 148.835938 193.144531 C 149.054688 193.164062 149.273438 193.160156 149.488281 193.128906 C 149.707031 193.101562 149.917969 193.050781 150.125 192.976562 C 150.332031 192.902344 150.527344 192.804688 150.710938 192.6875 C 150.898438 192.570312 151.066406 192.4375 151.222656 192.28125 C 151.378906 192.128906 151.519531 191.960938 151.636719 191.773438 C 151.757812 191.589844 151.855469 191.398438 151.929688 191.191406 C 152.007812 190.988281 152.0625 190.777344 152.09375 190.558594 C 152.125 190.34375 152.132812 190.125 152.117188 189.90625 C 152.117188 189.472656 152.03125 189.054688 151.867188 188.652344 C 151.699219 188.25 151.460938 187.894531 151.15625 187.589844 C 150.847656 187.28125 150.492188 187.042969 150.089844 186.878906 C 149.6875 186.710938 149.269531 186.628906 148.835938 186.628906 C 148.402344 186.628906 147.984375 186.710938 147.582031 186.878906 C 147.179688 187.042969 146.824219 187.28125 146.515625 187.589844 C 146.210938 187.894531 145.972656 188.25 145.804688 188.652344 C 145.640625 189.054688 145.554688 189.472656 145.554688 189.90625 Z M 165.429688 218.441406 C 166.199219 218.445312 166.964844 218.371094 167.726562 218.226562 C 168.484375 218.078125 169.21875 217.859375 169.933594 217.566406 C 170.648438 217.273438 171.328125 216.914062 171.972656 216.488281 C 172.617188 216.0625 173.214844 215.578125 173.761719 215.03125 C 174.3125 214.488281 174.800781 213.898438 175.230469 213.257812 C 175.664062 212.617188 176.027344 211.941406 176.328125 211.226562 C 176.625 210.515625 176.851562 209.78125 177.003906 209.023438 C 177.15625 208.265625 177.234375 207.503906 177.234375 206.730469 C 177.238281 205.957031 177.164062 205.195312 177.015625 204.4375 C 176.867188 203.679688 176.644531 202.941406 176.351562 202.230469 C 176.058594 201.515625 175.695312 200.835938 175.269531 200.195312 C 174.839844 199.550781 174.351562 198.957031 173.808594 198.410156 C 173.261719 197.863281 172.667969 197.375 172.027344 196.945312 C 171.386719 196.515625 170.707031 196.152344 169.996094 195.855469 C 169.28125 195.558594 168.546875 195.335938 167.789062 195.183594 C 167.03125 195.035156 166.265625 194.957031 165.492188 194.957031 C 164.71875 194.957031 163.953125 195.03125 163.195312 195.183594 C 162.4375 195.332031 161.703125 195.554688 160.988281 195.851562 C 160.277344 196.144531 159.597656 196.507812 158.957031 196.9375 C 158.3125 197.367188 157.71875 197.855469 157.171875 198.402344 C 156.628906 198.945312 156.140625 199.542969 155.710938 200.183594 C 155.28125 200.824219 154.921875 201.503906 154.625 202.21875 C 154.332031 202.929688 154.109375 203.667969 153.960938 204.421875 C 153.808594 205.179688 153.734375 205.945312 153.738281 206.71875 C 153.734375 207.488281 153.804688 208.25 153.953125 209.003906 C 154.097656 209.757812 154.320312 210.492188 154.613281 211.203125 C 154.902344 211.914062 155.261719 212.589844 155.6875 213.230469 C 156.113281 213.867188 156.601562 214.460938 157.144531 215.003906 C 157.6875 215.550781 158.277344 216.035156 158.917969 216.464844 C 159.558594 216.890625 160.230469 217.25 160.941406 217.546875 C 161.652344 217.839844 162.386719 218.0625 163.140625 218.210938 C 163.898438 218.359375 164.660156 218.433594 165.429688 218.429688 Z M 165.429688 213.542969 C 164.988281 213.539062 164.550781 213.488281 164.121094 213.394531 C 163.691406 213.304688 163.273438 213.171875 162.867188 212.996094 C 162.464844 212.820312 162.082031 212.605469 161.71875 212.355469 C 161.355469 212.105469 161.023438 211.820312 160.71875 211.503906 C 160.414062 211.183594 160.140625 210.839844 159.90625 210.46875 C 159.667969 210.097656 159.472656 209.707031 159.3125 209.296875 C 159.152344 208.886719 159.035156 208.460938 158.960938 208.027344 C 158.886719 207.59375 158.855469 207.15625 158.867188 206.71875 C 158.847656 206.273438 158.875 205.835938 158.945312 205.398438 C 159.011719 204.960938 159.125 204.535156 159.28125 204.117188 C 159.4375 203.703125 159.632812 203.308594 159.871094 202.933594 C 160.105469 202.558594 160.378906 202.210938 160.683594 201.890625 C 160.988281 201.570312 161.324219 201.285156 161.691406 201.03125 C 162.054688 200.78125 162.441406 200.566406 162.847656 200.394531 C 163.257812 200.21875 163.675781 200.089844 164.113281 200 C 164.546875 199.910156 164.984375 199.867188 165.429688 199.867188 C 165.871094 199.867188 166.308594 199.910156 166.746094 200 C 167.179688 200.089844 167.601562 200.21875 168.007812 200.394531 C 168.414062 200.566406 168.800781 200.78125 169.167969 201.03125 C 169.53125 201.285156 169.867188 201.570312 170.171875 201.890625 C 170.480469 202.210938 170.75 202.558594 170.988281 202.933594 C 171.222656 203.308594 171.417969 203.703125 171.574219 204.117188 C 171.730469 204.535156 171.84375 204.960938 171.914062 205.398438 C 171.984375 205.835938 172.007812 206.273438 171.988281 206.71875 C 172 207.15625 171.964844 207.59375 171.890625 208.027344 C 171.8125 208.460938 171.695312 208.878906 171.535156 209.289062 C 171.375 209.699219 171.179688 210.089844 170.941406 210.460938 C 170.703125 210.832031 170.433594 211.175781 170.128906 211.492188 C 169.824219 211.808594 169.492188 212.09375 169.128906 212.34375 C 168.769531 212.59375 168.386719 212.808594 167.984375 212.980469 C 167.578125 213.15625 167.164062 213.292969 166.734375 213.382812 C 166.304688 213.476562 165.867188 213.527344 165.429688 213.535156 Z M 179.398438 217.96875 L 184.605469 217.96875 L 184.605469 205.589844 C 184.605469 201.621094 186.921875 199.460938 189.890625 199.460938 C 193.289062 199.460938 194.984375 201.621094 194.984375 205.128906 L 194.984375 217.96875 L 200.273438 217.96875 L 200.273438 204.589844 C 200.273438 198.535156 196.914062 194.949219 191.320312 194.949219 C 190 194.917969 188.746094 195.1875 187.554688 195.757812 C 186.363281 196.328125 185.367188 197.140625 184.566406 198.1875 L 184.566406 195.410156 L 179.398438 195.410156 Z M 226.558594 218.355469 C 227.890625 218.339844 229.195312 218.148438 230.472656 217.773438 C 231.75 217.398438 232.953125 216.859375 234.082031 216.152344 C 235.207031 215.441406 236.21875 214.59375 237.109375 213.605469 C 238 212.617188 238.742188 211.527344 239.332031 210.332031 L 234.546875 207.828125 C 234.207031 208.617188 233.757812 209.339844 233.203125 210 C 232.652344 210.65625 232.011719 211.222656 231.292969 211.691406 C 230.570312 212.160156 229.796875 212.515625 228.972656 212.757812 C 228.148438 213 227.304688 213.117188 226.441406 213.109375 C 225.835938 213.117188 225.238281 213.066406 224.640625 212.953125 C 224.046875 212.839844 223.46875 212.667969 222.910156 212.4375 C 222.347656 212.207031 221.816406 211.925781 221.3125 211.589844 C 220.808594 211.253906 220.34375 210.871094 219.917969 210.441406 C 219.492188 210.011719 219.109375 209.542969 218.777344 209.039062 C 218.445312 208.53125 218.167969 207.996094 217.941406 207.433594 C 217.71875 206.875 217.550781 206.292969 217.441406 205.699219 C 217.332031 205.105469 217.285156 204.503906 217.296875 203.898438 C 217.28125 203.285156 217.328125 202.675781 217.433594 202.074219 C 217.542969 201.46875 217.707031 200.882812 217.933594 200.3125 C 218.160156 199.742188 218.441406 199.203125 218.78125 198.6875 C 219.117188 198.175781 219.5 197.703125 219.933594 197.269531 C 220.367188 196.832031 220.839844 196.445312 221.351562 196.109375 C 221.863281 195.769531 222.402344 195.488281 222.972656 195.257812 C 223.542969 195.027344 224.128906 194.859375 224.734375 194.75 C 225.335938 194.640625 225.945312 194.59375 226.558594 194.605469 C 227.363281 194.589844 228.15625 194.6875 228.933594 194.898438 C 229.710938 195.105469 230.445312 195.421875 231.132812 195.84375 C 231.820312 196.261719 232.433594 196.769531 232.972656 197.367188 C 233.515625 197.964844 233.960938 198.625 234.316406 199.347656 L 238.894531 196.414062 C 238.488281 195.742188 238.03125 195.109375 237.523438 194.511719 C 237.015625 193.914062 236.460938 193.363281 235.863281 192.855469 C 235.265625 192.347656 234.628906 191.894531 233.957031 191.492188 C 233.285156 191.085938 232.582031 190.742188 231.855469 190.453125 C 231.125 190.160156 230.375 189.933594 229.609375 189.765625 C 228.84375 189.597656 228.070312 189.492188 227.285156 189.453125 C 226.503906 189.410156 225.722656 189.433594 224.941406 189.519531 C 224.160156 189.605469 223.394531 189.753906 222.636719 189.964844 C 221.882812 190.175781 221.148438 190.445312 220.4375 190.773438 C 219.726562 191.105469 219.046875 191.492188 218.398438 191.933594 C 217.75 192.371094 217.140625 192.863281 216.570312 193.402344 C 216.003906 193.941406 215.480469 194.527344 215.007812 195.148438 C 214.535156 195.773438 214.113281 196.433594 213.746094 197.128906 C 213.382812 197.820312 213.074219 198.539062 212.824219 199.28125 C 212.574219 200.023438 212.386719 200.785156 212.261719 201.558594 C 212.136719 202.332031 212.074219 203.109375 212.074219 203.894531 C 212.058594 204.371094 212.070312 204.847656 212.101562 205.324219 C 212.136719 205.804688 212.195312 206.277344 212.277344 206.746094 C 212.359375 207.21875 212.464844 207.683594 212.59375 208.144531 C 212.722656 208.605469 212.875 209.054688 213.050781 209.5 C 213.226562 209.945312 213.425781 210.378906 213.648438 210.804688 C 213.867188 211.226562 214.109375 211.640625 214.371094 212.039062 C 214.632812 212.4375 214.917969 212.824219 215.21875 213.195312 C 215.519531 213.566406 215.839844 213.917969 216.179688 214.257812 C 216.515625 214.59375 216.871094 214.914062 217.242188 215.214844 C 217.613281 215.519531 218 215.800781 218.398438 216.0625 C 218.796875 216.324219 219.210938 216.566406 219.636719 216.785156 C 220.058594 217.007812 220.496094 217.203125 220.9375 217.378906 C 221.382812 217.554688 221.835938 217.707031 222.296875 217.835938 C 222.757812 217.96875 223.222656 218.074219 223.695312 218.15625 C 224.164062 218.234375 224.640625 218.292969 225.117188 218.328125 C 225.59375 218.359375 226.070312 218.371094 226.550781 218.355469 Z M 251.792969 218.429688 C 253.210938 218.457031 254.5625 218.171875 255.851562 217.578125 C 257.136719 216.980469 258.230469 216.136719 259.125 215.039062 L 259.125 217.96875 L 264.335938 217.96875 L 264.335938 195.410156 L 259.125 195.410156 L 259.125 198.109375 C 258.207031 197.074219 257.117188 196.28125 255.847656 195.730469 C 254.582031 195.175781 253.253906 194.914062 251.871094 194.949219 C 251.113281 194.945312 250.359375 195.019531 249.613281 195.171875 C 248.867188 195.320312 248.148438 195.546875 247.449219 195.84375 C 246.75 196.144531 246.085938 196.507812 245.460938 196.941406 C 244.835938 197.375 244.265625 197.867188 243.738281 198.417969 C 243.214844 198.96875 242.753906 199.566406 242.351562 200.210938 C 241.949219 200.855469 241.617188 201.535156 241.355469 202.25 C 241.089844 202.960938 240.902344 203.695312 240.789062 204.445312 C 240.675781 205.195312 240.640625 205.949219 240.679688 206.710938 C 240.652344 207.460938 240.695312 208.207031 240.816406 208.949219 C 240.933594 209.691406 241.128906 210.417969 241.390625 211.121094 C 241.65625 211.824219 241.988281 212.496094 242.386719 213.132812 C 242.785156 213.769531 243.242188 214.363281 243.761719 214.910156 C 244.277344 215.457031 244.84375 215.945312 245.460938 216.378906 C 246.074219 216.8125 246.726562 217.179688 247.417969 217.480469 C 248.105469 217.785156 248.816406 218.015625 249.554688 218.175781 C 250.289062 218.335938 251.035156 218.421875 251.785156 218.429688 Z M 252.652344 213.648438 C 252.195312 213.648438 251.742188 213.605469 251.296875 213.511719 C 250.847656 213.421875 250.414062 213.289062 249.996094 213.109375 C 249.574219 212.933594 249.175781 212.714844 248.796875 212.457031 C 248.421875 212.199219 248.074219 211.90625 247.753906 211.582031 C 247.4375 211.253906 247.15625 210.898438 246.90625 210.515625 C 246.660156 210.132812 246.453125 209.726562 246.289062 209.300781 C 246.121094 208.875 246 208.441406 245.921875 207.988281 C 245.84375 207.539062 245.808594 207.089844 245.820312 206.632812 C 245.8125 206.179688 245.84375 205.730469 245.921875 205.285156 C 246 204.835938 246.125 204.402344 246.289062 203.980469 C 246.453125 203.5625 246.660156 203.160156 246.90625 202.777344 C 247.152344 202.398438 247.433594 202.046875 247.75 201.722656 C 248.066406 201.398438 248.410156 201.109375 248.785156 200.851562 C 249.160156 200.597656 249.554688 200.382812 249.972656 200.207031 C 250.390625 200.03125 250.824219 199.898438 251.265625 199.808594 C 251.710938 199.71875 252.160156 199.671875 252.613281 199.671875 C 253.066406 199.671875 253.515625 199.71875 253.960938 199.808594 C 254.402344 199.898438 254.835938 200.03125 255.253906 200.207031 C 255.671875 200.382812 256.066406 200.597656 256.441406 200.851562 C 256.816406 201.109375 257.160156 201.398438 257.476562 201.722656 C 257.792969 202.046875 258.074219 202.398438 258.320312 202.777344 C 258.566406 203.160156 258.773438 203.5625 258.9375 203.980469 C 259.101562 204.402344 259.226562 204.835938 259.304688 205.285156 C 259.382812 205.730469 259.414062 206.179688 259.40625 206.632812 C 259.417969 207.085938 259.390625 207.539062 259.3125 207.984375 C 259.238281 208.433594 259.117188 208.871094 258.957031 209.292969 C 258.792969 209.71875 258.589844 210.121094 258.34375 210.503906 C 258.101562 210.890625 257.820312 211.246094 257.503906 211.570312 C 257.1875 211.898438 256.84375 212.191406 256.46875 212.449219 C 256.09375 212.707031 255.699219 212.925781 255.28125 213.105469 C 254.863281 213.28125 254.429688 213.417969 253.984375 213.507812 C 253.539062 213.601562 253.089844 213.648438 252.632812 213.648438 Z M 267.492188 217.96875 L 272.699219 217.96875 L 272.699219 205.476562 C 272.699219 201.464844 274.859375 199.460938 277.792969 199.460938 C 280.917969 199.460938 282.539062 201.425781 282.539062 204.664062 L 282.539062 217.96875 L 287.824219 217.96875 L 287.824219 205.359375 C 287.824219 201.386719 289.988281 199.460938 292.804688 199.460938 C 296.046875 199.460938 297.703125 201.542969 297.703125 204.816406 L 297.703125 217.96875 L 303.027344 217.96875 L 303.027344 204.394531 C 303.027344 198.535156 299.902344 194.949219 293.84375 194.949219 C 293.113281 194.933594 292.390625 195.011719 291.679688 195.179688 C 290.96875 195.347656 290.285156 195.601562 289.640625 195.941406 C 288.992188 196.28125 288.394531 196.699219 287.855469 197.1875 C 287.3125 197.679688 286.839844 198.230469 286.4375 198.84375 C 286.074219 198.203125 285.632812 197.625 285.105469 197.113281 C 284.578125 196.601562 283.988281 196.171875 283.339844 195.828125 C 282.691406 195.480469 282.003906 195.234375 281.285156 195.085938 C 280.566406 194.9375 279.839844 194.890625 279.105469 194.949219 C 277.847656 194.917969 276.648438 195.171875 275.511719 195.714844 C 274.375 196.261719 273.425781 197.03125 272.660156 198.035156 L 272.660156 195.410156 L 267.492188 195.410156 Z M 318.542969 218.429688 C 319.292969 218.421875 320.035156 218.335938 320.769531 218.175781 C 321.507812 218.015625 322.21875 217.785156 322.90625 217.480469 C 323.59375 217.179688 324.246094 216.808594 324.859375 216.378906 C 325.476562 215.945312 326.039062 215.453125 326.554688 214.90625 C 327.074219 214.363281 327.527344 213.769531 327.925781 213.132812 C 328.324219 212.492188 328.652344 211.820312 328.917969 211.117188 C 329.179688 210.414062 329.371094 209.691406 329.488281 208.949219 C 329.605469 208.207031 329.648438 207.460938 329.617188 206.710938 C 329.660156 205.953125 329.625 205.199219 329.515625 204.453125 C 329.40625 203.703125 329.21875 202.972656 328.960938 202.261719 C 328.699219 201.550781 328.371094 200.871094 327.972656 200.226562 C 327.574219 199.582031 327.117188 198.984375 326.59375 198.433594 C 326.074219 197.886719 325.503906 197.394531 324.882812 196.957031 C 324.261719 196.523438 323.605469 196.15625 322.910156 195.859375 C 322.214844 195.558594 321.496094 195.332031 320.753906 195.179688 C 320.011719 195.023438 319.261719 194.949219 318.503906 194.949219 C 317.074219 194.914062 315.714844 195.203125 314.425781 195.816406 C 313.132812 196.425781 312.050781 197.292969 311.171875 198.417969 L 311.171875 195.410156 L 305.992188 195.410156 L 305.992188 228.339844 L 311.164062 228.339844 L 311.164062 215.308594 C 312.089844 216.363281 313.199219 217.167969 314.492188 217.714844 C 315.789062 218.261719 317.136719 218.5 318.542969 218.429688 Z M 317.683594 213.648438 C 317.230469 213.648438 316.78125 213.601562 316.335938 213.507812 C 315.894531 213.417969 315.460938 213.28125 315.046875 213.101562 C 314.628906 212.925781 314.234375 212.707031 313.863281 212.445312 C 313.488281 212.1875 313.148438 211.894531 312.832031 211.566406 C 312.519531 211.238281 312.242188 210.882812 312 210.5 C 311.757812 210.117188 311.558594 209.714844 311.398438 209.289062 C 311.238281 208.867188 311.121094 208.429688 311.050781 207.984375 C 310.976562 207.535156 310.949219 207.085938 310.96875 206.632812 C 310.953125 206.179688 310.980469 205.734375 311.054688 205.289062 C 311.128906 204.84375 311.246094 204.414062 311.410156 203.992188 C 311.570312 203.570312 311.773438 203.171875 312.015625 202.789062 C 312.257812 202.410156 312.535156 202.058594 312.847656 201.734375 C 313.160156 201.410156 313.503906 201.121094 313.875 200.863281 C 314.25 200.609375 314.640625 200.394531 315.058594 200.21875 C 315.472656 200.042969 315.902344 199.910156 316.34375 199.824219 C 316.785156 199.734375 317.234375 199.691406 317.683594 199.691406 C 318.136719 199.691406 318.585938 199.734375 319.027344 199.824219 C 319.472656 199.914062 319.902344 200.046875 320.320312 200.222656 C 320.738281 200.394531 321.132812 200.609375 321.507812 200.867188 C 321.882812 201.121094 322.226562 201.410156 322.542969 201.730469 C 322.859375 202.054688 323.140625 202.40625 323.386719 202.785156 C 323.632812 203.164062 323.839844 203.566406 324.003906 203.988281 C 324.171875 204.40625 324.292969 204.839844 324.371094 205.285156 C 324.453125 205.730469 324.484375 206.179688 324.476562 206.632812 C 324.488281 207.085938 324.457031 207.539062 324.378906 207.984375 C 324.300781 208.433594 324.179688 208.867188 324.015625 209.292969 C 323.851562 209.714844 323.648438 210.117188 323.402344 210.5 C 323.15625 210.882812 322.875 211.238281 322.5625 211.566406 C 322.246094 211.894531 321.898438 212.1875 321.523438 212.445312 C 321.152344 212.703125 320.753906 212.917969 320.335938 213.097656 C 319.917969 213.277344 319.488281 213.414062 319.042969 213.507812 C 318.597656 213.597656 318.148438 213.648438 317.691406 213.648438 Z M 352.113281 195.410156 L 346.902344 195.410156 L 346.902344 207.789062 C 346.902344 211.761719 344.78125 213.917969 341.886719 213.917969 C 338.605469 213.917969 337.0625 211.761719 337.0625 208.25 L 337.0625 195.410156 L 331.777344 195.410156 L 331.777344 208.792969 C 331.777344 214.804688 335.09375 218.429688 340.457031 218.429688 C 341.722656 218.484375 342.929688 218.242188 344.074219 217.703125 C 345.21875 217.164062 346.175781 216.390625 346.941406 215.386719 L 346.941406 217.96875 L 352.113281 217.96875 Z M 363.609375 218.429688 C 370.054688 218.429688 372.871094 214.226562 372.871094 211.066406 C 372.871094 206.285156 368.628906 205.089844 364.921875 204.28125 C 361.527344 203.546875 359.753906 203.160156 359.753906 201.65625 C 359.753906 200.386719 360.910156 199.230469 363.378906 199.230469 C 363.855469 199.210938 364.328125 199.253906 364.796875 199.363281 C 365.261719 199.472656 365.703125 199.640625 366.125 199.867188 C 366.546875 200.09375 366.929688 200.371094 367.273438 200.703125 C 367.621094 201.03125 367.917969 201.402344 368.164062 201.8125 L 372.601562 199.574219 C 372.121094 198.800781 371.542969 198.109375 370.875 197.492188 C 370.203125 196.878906 369.460938 196.363281 368.648438 195.953125 C 367.832031 195.542969 366.980469 195.246094 366.085938 195.070312 C 365.191406 194.894531 364.292969 194.839844 363.382812 194.910156 C 357.941406 194.910156 354.507812 198.1875 354.507812 201.8125 C 354.507812 206.523438 358.558594 207.90625 362.417969 208.597656 C 365.207031 209.214844 367.707031 209.523438 367.707031 211.183594 C 367.707031 212.679688 366.433594 213.917969 363.847656 213.917969 C 363.28125 213.941406 362.726562 213.882812 362.179688 213.742188 C 361.632812 213.601562 361.121094 213.382812 360.636719 213.09375 C 360.152344 212.800781 359.722656 212.449219 359.339844 212.03125 C 358.960938 211.613281 358.648438 211.152344 358.40625 210.640625 L 353.582031 212.957031 C 354.050781 213.859375 354.640625 214.671875 355.351562 215.402344 C 356.066406 216.128906 356.867188 216.734375 357.761719 217.222656 C 358.652344 217.710938 359.597656 218.058594 360.59375 218.261719 C 361.59375 218.46875 362.597656 218.523438 363.609375 218.429688 Z M 363.609375 218.429688 " fill-opacity="1" fill-rule="nonzero"/></g></svg>